<svg width="9" height="17" viewBox="0 0 9 17" fill="none" xmlns="http://www.w3.org/2000/svg">
<path d="M7.3352 0.517171L1.3352 0.511922C0.783017 0.511439 0.334813 0.95886 0.33433 1.51105L0.322083 15.511C0.321599 16.0632 0.76902 16.5114 1.32121 16.5119L7.3212 16.5172C7.87339 16.5176 8.3216 16.0702 8.32208 15.518L8.33433 1.51805C8.33481 0.965858 7.88739 0.517654 7.3352 0.517171ZM1.32208 15.5119L1.33433 1.51192L7.33433 1.51717L7.33258 3.51717L5.58258 3.51564C5.44445 3.51552 5.33248 3.6273 5.33236 3.76542L5.33192 4.26542C5.3318 4.40354 5.44358 4.51552 5.5817 4.51564L7.3317 4.51717L7.32995 6.51717L5.57995 6.51564C5.44183 6.51552 5.32986 6.62729 5.32974 6.76542L5.3293 7.26542C5.32918 7.40354 5.44095 7.51552 5.57908 7.51564L7.32908 7.51717L7.32733 9.51717L5.57733 9.51564C5.4392 9.51552 5.32723 9.62729 5.32711 9.76542L5.32667 10.2654C5.32655 10.4035 5.43833 10.5155 5.57645 10.5156L7.32645 10.5172L7.3247 12.5172L5.5747 12.5156C5.43658 12.5155 5.32461 12.6273 5.32449 12.7654L5.32405 13.2654C5.32393 13.4035 5.43571 13.5155 5.57383 13.5156L7.32383 13.5172L7.32208 15.5172L1.32208 15.5119Z" fill="#212121"/>
</svg>
