<svg width="18" height="19" viewBox="0 0 18 19" fill="none" xmlns="http://www.w3.org/2000/svg">
<path d="M9.33653 17.9212L10.1106 17.1485C10.2938 16.9656 10.2941 16.6688 10.1112 16.4855L4.05672 10.4205L17.3939 10.4322C17.6527 10.4324 17.8628 10.2227 17.863 9.96383L17.864 8.87008C17.8642 8.61121 17.6545 8.40115 17.3956 8.40092L4.0585 8.38925L10.1236 2.33479C10.3068 2.15191 10.307 1.85511 10.1241 1.67186L9.35142 0.897827C9.16854 0.71462 8.87174 0.71436 8.68849 0.897247L0.501102 9.07032C0.317895 9.25321 0.317636 9.55001 0.500522 9.73325L8.6736 17.9206C8.85649 18.1038 9.15328 18.1041 9.33653 17.9212Z" fill="white"/>
</svg>
