<svg width="9" height="9" viewBox="0 0 9 9" fill="none" xmlns="http://www.w3.org/2000/svg">
<path d="M8.80423 7.46645L6.90911 5.56801C6.87321 5.53204 6.82635 5.51325 6.77635 5.51321L6.57011 5.51303C7.06278 4.94318 7.36185 4.20129 7.36256 3.38883C7.36413 1.5936 5.91079 0.137714 4.11556 0.136144C2.32034 0.134573 0.86445 1.58792 0.86288 3.38314C0.861309 5.17836 2.31465 6.63425 4.10988 6.63582C4.92234 6.63653 5.66475 6.33876 6.23546 5.8471L6.23528 6.05334C6.23524 6.10333 6.25551 6.15022 6.28985 6.18619L8.18497 8.08463C8.25834 8.15813 8.37709 8.15823 8.45059 8.08486L8.804 7.73206C8.8775 7.65869 8.8776 7.53995 8.80423 7.46645ZM4.11053 5.88586C2.72935 5.88465 1.61163 4.76498 1.61284 3.3838C1.61405 2.00261 2.73372 0.884899 4.11491 0.886107C5.49609 0.887315 6.6138 2.00699 6.6126 3.38817C6.61139 4.76935 5.49171 5.88707 4.11053 5.88586Z" fill="#666666"/>
</svg>
