<svg width="17" height="17" viewBox="0 0 17 17" fill="none" xmlns="http://www.w3.org/2000/svg">
<path d="M14.3334 2.43321L12.3081 2.43143C11.3954 1.22376 9.96239 0.429382 8.3352 0.427958C6.70801 0.426535 5.27357 1.21841 4.35877 2.42448L2.33345 2.42271C1.23064 2.42174 0.332671 3.31815 0.331706 4.42096L0.322957 14.421C0.321993 15.5238 1.21839 16.4217 2.32121 16.4227L14.3212 16.4332C15.424 16.4342 16.322 15.5378 16.323 14.435L16.3317 4.43496C16.3327 3.33214 15.4363 2.43417 14.3334 2.43321ZM8.33433 1.42796C10.5434 1.42989 12.3328 3.22239 12.3308 5.43146C12.3289 7.64052 10.5364 9.42989 8.32733 9.42795C6.11827 9.42602 4.3289 7.63352 4.33083 5.42446C4.33276 3.2154 6.12527 1.42603 8.33433 1.42796ZM15.323 14.4341C15.3225 14.9863 14.8743 15.4337 14.3221 15.4332L2.32208 15.4227C1.76989 15.4222 1.32247 14.974 1.32296 14.4218L1.33171 4.42183C1.33219 3.86965 1.78039 3.42222 2.33258 3.42271L3.75633 3.42395C3.48642 4.03715 3.33145 4.71171 3.33083 5.42358C3.32842 8.18046 5.56958 10.4255 8.32645 10.428C11.0833 10.4304 13.3284 8.1892 13.3308 5.43233C13.3314 4.72046 13.1777 4.04563 12.9088 3.43196L14.3326 3.43321C14.8848 3.43369 15.3322 3.88189 15.3317 4.43408L15.323 14.4341ZM8.3282 8.42795C9.15539 8.42868 9.82879 7.75645 9.82951 6.92927C9.8299 6.49427 9.64117 6.10535 9.34485 5.83103L10.2918 3.62655C10.4008 3.3732 10.2835 3.07904 10.0295 2.97007C9.77714 2.8611 9.48203 2.97802 9.37306 3.2323L8.42551 5.43773C7.31745 5.36457 6.83004 6.32196 6.82952 6.92664C6.82879 7.75383 7.50102 8.42723 8.3282 8.42795ZM8.32995 6.42796C8.6062 6.4282 8.82976 6.65214 8.82952 6.92839C8.82927 7.20464 8.60533 7.4282 8.32908 7.42796C8.05283 7.42771 7.82927 7.20377 7.82952 6.92752C7.82976 6.65127 8.0537 6.42771 8.32995 6.42796Z" fill="#212121"/>
</svg>
