<svg width="207" height="209" viewBox="0 0 207 209" fill="none" xmlns="http://www.w3.org/2000/svg">
<g opacity="0.1">
<path d="M128.189 104.616C128.177 118.292 117.081 129.368 103.406 129.356C89.73 129.344 78.6534 118.248 78.6654 104.573C78.6774 90.8971 89.7733 79.8206 103.449 79.8325C117.125 79.8445 128.201 90.9405 128.189 104.616Z" fill="white"/>
<path fill-rule="evenodd" clip-rule="evenodd" d="M103.336 208.594C155.73 208.64 199.108 169.935 206.361 119.542L145.45 119.488C139.316 136.794 122.795 149.183 103.388 149.166C83.9816 149.149 67.4826 136.732 61.3791 119.415L0.467535 119.361C7.63257 169.768 50.943 208.549 103.336 208.594ZM61.4051 89.7005L0.49353 89.6472C7.74674 39.2538 51.125 0.548626 103.518 0.594462C155.912 0.640298 199.222 39.4213 206.387 89.8273L145.476 89.7741C139.372 72.4573 122.873 60.04 103.466 60.023C84.0596 60.006 67.5389 72.3944 61.4051 89.7005ZM128.189 104.616C128.177 118.292 117.081 129.368 103.406 129.356C89.73 129.344 78.6534 118.248 78.6654 104.573C78.6774 90.8971 89.7733 79.8206 103.449 79.8325C117.125 79.8445 128.201 90.9405 128.189 104.616Z" fill="white"/>
</g>
</svg>
