<svg width="25" height="25" viewBox="0 0 25 25" fill="none" xmlns="http://www.w3.org/2000/svg">
<path d="M15.2507 12.034C15.2493 13.6119 13.969 14.89 12.3911 14.8886C10.8131 14.8873 9.53503 13.6069 9.53641 12.029C9.53779 10.451 10.8181 9.17297 12.3961 9.17435C13.974 9.17573 15.2521 10.456 15.2507 12.034Z" fill="#212121"/>
<path fill-rule="evenodd" clip-rule="evenodd" d="M12.3831 24.0315C18.4284 24.0368 23.4336 19.5708 24.2705 13.7562L17.2423 13.75C16.5345 15.7469 14.6283 17.1763 12.3891 17.1743C10.1498 17.1724 8.24609 15.7396 7.54183 13.7415L0.513579 13.7354C1.34031 19.5515 6.33767 24.0262 12.3831 24.0315ZM7.54483 10.313L0.516578 10.3068C1.35349 4.49218 6.35867 0.0262054 12.404 0.0314941C18.4494 0.0367828 23.4468 4.51151 24.2735 10.3276L17.2453 10.3214C16.541 8.32336 14.6373 6.89059 12.398 6.88863C10.1588 6.88668 8.25259 8.31611 7.54483 10.313ZM15.2507 12.034C15.2493 13.6119 13.969 14.89 12.3911 14.8886C10.8131 14.8873 9.53503 13.6069 9.53641 12.029C9.53779 10.451 10.8181 9.17297 12.3961 9.17435C13.974 9.17573 15.2521 10.456 15.2507 12.034Z" fill="#212121"/>
</svg>
